name 900006_13rea_lsw
datacolumns 54
datarows 4
range 0.4625000000000000 0.4882500002000000
cursor 1.0 1.0 0.0
keys m_key
wrap
enforce_loops no
enforce_constraints no
calc_derivatives 0.008583
event_color 1.000000 0.000000 1.000000
endheader

time	calcn_r_tx	calcn_r_ty	calcn_r_tz	calcn_r_r1	calcn_r_r2	calcn_r_r3	calcn_l_tx	calcn_l_ty	calcn_l_tz	calcn_l_r1	calcn_l_r2	calcn_l_r3	pelvis_tz	pelvis_tx	pelvis_ty	pelvis_tilt	pelvis_list	pelvis_rotation	hip_flexion_r	hip_adduction_r	hip_rotation_r	knee_angle_r	ankle_angle_r	subtalar_angle_r	mtp_angle_r	hip_flexion_l	hip_adduction_l	hip_rotation_l	knee_angle_l	ankle_angle_l	subtalar_angle_l	mtp_angle_l	lumbar_extension	lumbar_bending	lumbar_rotation	ground_force_px	ground_force_py	ground_force_pz	ground_force_vx	ground_force_vy	ground_force_vz	ground_force_px	ground_force_py	ground_force_pz	ground_force_vx	ground_force_vy	ground_force_vz	ground_torque_x	ground_torque_y	ground_torque_z	ground_torque_x	ground_torque_y	ground_torque_z	
      0.4625000000000000	      1.9005354739626477	      0.0353630165789425	     -0.2190249468855171	      1.7460182120197145	     -1.2948236677671512	     16.3672049555475670	      1.4407307803355824	      0.0388343007819552	     -0.3124927843882979	     -2.8640127625780050	      3.1183390964632052	     -5.5527339657565635	     -0.2943433668264495	      1.7606902745521384	      0.8054279699515914	      2.0288652563685878	     -0.2812763877994882	      2.7165443450419011	     23.7260769844621640	      0.4646791213625769	     -4.1994968213034598	    -11.4267262078686860	      2.1363853311656880	      0.0000000000000000	      0.0000000000000000	    -15.4513646438730210	      4.0853626560400649	     -2.3852440399847543	     -6.7352763097416206	     14.8089103173170520	      0.0000000000000000	      0.0000000000000000	     -4.0998521381624791	      1.1727021500314618	      0.2938716322583715	      1.9632836936457032	      0.0000000000000000	     -0.2334994025230686	      0.2360276548135688	      0.0504820589716720	     -0.0469221550256954	      1.5954017215743084	      0.0000000000000000	     -0.3176140223215641	     39.1470016355165460	    477.7275268473090400	      8.6360298021238826	      0.0000000000000000	     -0.0020487231778594	      0.0000000000000000	      0.0000000000000000	     -1.1868334057898577	      0.0000000000000000	
      0.4710833334000000	      1.9133524294887587	      0.0348748237860241	     -0.2199298982073708	      1.8432184620555963	     -1.2472623127458782	     16.8317955001332220	      1.4403134678336369	      0.0412293670509541	     -0.3123948744515909	     -2.7553186348793095	      3.1399155194404589	     -6.2090139353213774	     -0.2940349857210903	      1.7697445163762404	      0.8043304274723735	      2.0997012749517538	     -0.2467521017601501	      2.7771992775366678	     23.7474391799479750	      0.5108455981408909	     -4.2401044366918086	    -11.0492813067046440	      2.1360959935330239	      0.0000000000000000	      0.0000000000000000	    -15.9821183722435260	      4.0283268135538295	     -2.4411013816331066	     -7.4057750659314756	     15.2951007331609470	      0.0000000000000000	      0.0000000000000000	     -4.6014344296131151	      1.2961786386942071	     -0.3956651666204981	      1.9676241387057636	      0.0000000000000000	     -0.2329033371010174	      0.3370941276659257	     -0.6109486337829621	     -0.0157365735680653	      1.5976266063303994	      0.0000000000000000	     -0.3170216429414446	     42.6336929377700500	    483.3448908421373700	      7.9761072647484008	      0.0000000000000000	      0.0005076671546788	      0.0000000000000000	      0.0000000000000000	     -1.0500567938145027	      0.0000000000000000	
      0.4796666668000000	      1.9242828192101318	      0.0342351425174307	     -0.2208094933993070	      1.9382628165184566	     -1.1772917049389111	     16.9045694322876230	      1.4400998271368246	      0.0439932491336922	     -0.3123761855747301	     -2.6496523402619716	      3.1559041181167764	     -6.9663588156970091	     -0.2937079247353673	      1.7789887460546470	      0.8033347134650153	      2.1734872296540861	     -0.2218835300164378	      2.8129622876880331	     23.7585733414094660	      0.5722835022958690	     -4.2587808130986771	    -10.9533459158840940	      2.0307366116645373	      0.0000000000000000	      0.0000000000000000	    -16.4504554747432080	      3.9584569835964176	     -2.5209361723305124	     -8.2104554220435801	     15.7505151015992570	      0.0000000000000000	      0.0000000000000000	     -5.0686614143508182	      1.4411308807390530	     -1.0077739339964167	      1.9715095379516299	      0.0000000000000000	     -0.2324000595634748	     -3.0533223039037347	      1.8314706813772221	      0.5606914756494127	      1.5996092039759842	      0.0000000000000000	     -0.3164622379098234	     46.5711662944000860	    487.0111647591173200	      7.3715106612483696	      0.0000000000000000	      0.0226450292333221	      0.0000000000000000	      0.0000000000000000	     -0.8884775346976870	      0.0000000000000000	
      0.4882500002000000	      1.9333353785826590	      0.0334792363956068	     -0.2216360121435539	      2.0346420816944608	     -1.0808949400564525	     16.5442597240402630	      1.4401254289237737	      0.0471478444191275	     -0.3124522869844213	     -2.5513501521332098	      3.1632920071939035	     -7.8438780821458547	     -0.2933617321303668	      1.7883971335131992	      0.8024458339609744	      2.2459214357091364	     -0.2089782381809227	      2.8195786682114101	     23.7632436990328100	      0.6499817765314051	     -4.2587693545578746	    -11.1252347244114330	      1.7645057413910383	      0.0000000000000000	      0.0000000000000000	    -16.8458187756534770	      3.8753862971229798	     -2.6217053174625082	     -9.1518198962160682	     16.1516374549064170	      0.0000000000000000	      0.0000000000000000	     -5.5061342567005074	      1.6107547822679043	     -1.5327146782645755	      1.9745274294540076	      0.0000000000000000	     -0.2323025220477626	    -10.5699300967548950	     16.3713341291233830	      1.5696420710681529	      1.6013123448999962	      0.0000000000000000	     -0.3159574567562009	     51.1129594174123550	    487.9258037602590400	      6.6837225399109084	      0.0000000000000000	      0.0514454222863264	      0.0000000000000000	      0.0000000000000000	     -0.7305472305688155	      0.0000000000000000	
